<?xml version="1.0" encoding="UTF-8" standalone="no"?>
<!-- Created with Vectornator (http://vectornator.io/) -->

<svg
   height="100%"
   stroke-miterlimit="10"
   style=""
   version="1.1"
   viewBox="0 0 600 300"
   width="100%"
   xml:space="preserve"
   id="svg20"
   sodipodi:docname="md2html.svg"
   inkscape:version="1.3 (0e150ed6c4, 2023-07-21)"
   xmlns:inkscape="http://www.inkscape.org/namespaces/inkscape"
   xmlns:sodipodi="http://sodipodi.sourceforge.net/DTD/sodipodi-0.dtd"
   xmlns="http://www.w3.org/2000/svg"
   xmlns:svg="http://www.w3.org/2000/svg"><sodipodi:namedview
   id="namedview20"
   pagecolor="#505050"
   bordercolor="#ffffff"
   borderopacity="1"
   inkscape:showpageshadow="0"
   inkscape:pageopacity="0"
   inkscape:pagecheckerboard="1"
   inkscape:deskcolor="#505050"
   inkscape:zoom="2.5816667"
   inkscape:cx="300"
   inkscape:cy="149.90316"
   inkscape:window-width="2100"
   inkscape:window-height="1224"
   inkscape:window-x="-9"
   inkscape:window-y="89"
   inkscape:window-maximized="1"
   inkscape:current-layer="g6" />&#10;<defs
   id="defs1">&#10;<path
   d="M221.222 274.708C215.033 274.708 209.734 272.266 205.326 267.381C200.919 262.497 198.715 256.625 198.715 249.766L198.715 75.1752C198.715 68.3163 200.919 62.4446 205.326 57.5602C209.734 52.6758 215.033 50.2336 221.222 50.2336L268.208 50.2336C270.271 42.959 274.304 36.9834 280.306 32.3069C286.308 27.6303 292.873 25.2921 300 25.2921C307.503 25.2921 314.208 27.6303 320.116 32.3069C326.025 36.9834 330.01 42.959 332.074 50.2336L378.778 50.2336C384.967 50.2336 390.266 52.6758 394.674 57.5602C399.081 62.4446 401.285 68.3163 401.285 75.1752L401.285 249.766C401.285 256.625 399.081 262.497 394.674 267.381C390.266 272.266 384.967 274.708 378.778 274.708L221.222 274.708ZM231.233 249.766L368.767 249.766C374.296 249.766 378.778 244.8 378.778 238.673L378.778 86.2684C378.778 80.1418 374.296 75.1752 368.767 75.1752L366.28 75.1752C360.752 75.1752 356.27 80.1418 356.27 86.2684L356.27 101.494C356.27 107.621 351.788 112.588 346.259 112.588L253.741 112.588C248.212 112.588 243.73 107.621 243.73 101.494L243.73 86.2684C243.73 80.1418 239.248 75.1752 233.72 75.1752L231.233 75.1752C225.704 75.1752 221.222 80.1418 221.222 86.2684L221.222 238.673C221.222 244.8 225.704 249.766 231.233 249.766ZM300 75.1752C303.189 75.1752 305.861 73.9801 308.018 71.5899C310.175 69.1996 311.254 66.2378 311.254 62.7044C311.254 59.1711 310.175 56.2092 308.018 53.819C305.861 51.4288 303.189 50.2336 300 50.2336C296.811 50.2336 294.139 51.4288 291.982 53.819C289.825 56.2092 288.746 59.1711 288.746 62.7044C288.746 66.2378 289.825 69.1996 291.982 71.5899C294.139 73.9801 296.811 75.1752 300 75.1752Z"
   id="Fill" />&#10;<path
   d="M259.123 177.264C262.882 177.264 266.06 175.965 268.658 173.367C271.256 170.769 272.555 167.59 272.555 163.831C272.555 160.073 271.256 156.894 268.658 154.296C266.06 151.698 262.882 150.399 259.123 150.399C255.364 150.399 252.185 151.698 249.587 154.296C246.989 156.894 245.69 160.073 245.69 163.831C245.69 167.59 246.989 170.769 249.587 173.367C252.185 175.965 255.364 177.264 259.123 177.264Z"
   id="Fill_2" />&#10;<path
   d="M300 177.264C303.759 177.264 306.937 175.965 309.535 173.367C312.133 170.769 313.432 167.59 313.432 163.831C313.432 160.073 312.133 156.894 309.535 154.296C306.937 151.698 303.759 150.399 300 150.399C296.241 150.399 293.063 151.698 290.465 154.296C287.867 156.894 286.568 160.073 286.568 163.831C286.568 167.59 287.867 170.769 290.465 173.367C293.063 175.965 296.241 177.264 300 177.264Z"
   id="Fill_3" />&#10;<path
   d="M340.877 177.264C344.636 177.264 347.815 175.965 350.413 173.367C353.011 170.769 354.31 167.59 354.31 163.831C354.31 160.073 353.011 156.894 350.413 154.296C347.815 151.698 344.636 150.399 340.877 150.399C337.118 150.399 333.94 151.698 331.342 154.296C328.744 156.894 327.445 160.073 327.445 163.831C327.445 167.59 328.744 170.769 331.342 173.367C333.94 175.965 337.118 177.264 340.877 177.264Z"
   id="Fill_4" />&#10;<clipPath
   id="clip-1"><path
     d="M -150,375 V -75 h 900 v 450 z"
     fill="none"
     fill-rule="nonzero"
     id="path1" /></clipPath></defs>&#10;<clipPath
   id="ArtboardFrame">&#10;<rect
   height="300"
   width="600"
   x="0"
   y="0"
   id="rect1" />&#10;</clipPath>&#10;&#10;<g
   transform="translate(-0.32533207,0.4983488)"
   id="g16"><g
     data-paper-data="{&quot;isPaintingLayer&quot;:true}"
     stroke-linecap="butt"
     stroke-linejoin="miter"
     stroke-miterlimit="10"
     stroke-dasharray="none"
     stroke-dashoffset="0"
     style="mix-blend-mode:normal"
     id="g15"><g
       clip-path="url(#clip-1)"
       stroke="none"
       stroke-width="1"
       id="g6"><path
         d="M 0,300 V 0 h 600 v 300 z"
         fill="#0fbd93"
         fill-rule="nonzero"
         id="path2" /><path
         d="M -0.38734668,299.93673 0,-2 h 271.78892 c 2.17415,1.579 4.30579,3.22087 6.56731,4.67064 2.41984,1.55126 7.75407,3.60726 9.69178,6.50635 0.47473,0.71026 0.037,1.73753 0.32315,2.54247 0.45524,1.28036 1.47244,2.32325 1.86902,3.62298 0.46289,1.51705 0.4038,3.1474 0.67368,4.71037 0.84726,4.90683 3.56376,11.20388 2.88482,16.21181 -0.73337,5.40944 -3.29034,10.12381 -4.6788,15.29082 -0.43784,1.6294 -0.13817,3.41571 -0.66916,5.01717 -0.36169,1.09087 -1.54854,1.76983 -1.9395,2.85055 -0.47045,1.30042 0.0779,2.89078 -0.57795,4.10826 -0.595,1.10448 -2.11801,1.4112 -2.91668,2.37869 -1.53023,1.85369 -2.66667,4 -4,6 -1.45967,1.4976 -3.12883,2.81633 -4.379,4.49279 -1.03154,1.38328 -1.47872,3.12704 -2.39409,4.58979 -1.69452,2.70782 -4.00869,5.02676 -5.47664,7.8638 -4.03789,7.80378 -7.43126,16.94626 -5.88772,25.99534 0.62237,3.64868 2.18025,6.02591 3.35594,9.47487 0.58381,1.71265 0.63442,3.62429 1.48556,5.22102 1.29197,2.42373 2.97108,4.65753 4.84873,6.66204 7.88016,8.41261 20.39453,12.90214 25.8018,23.5097 0.60948,2.54486 2.06785,4.85134 2.55929,7.42161 0.63291,3.31022 -0.18483,6.73875 -0.18044,10.10892 0.0131,10.00512 0.20365,19.08949 -3.37885,28.53054 -1.2137,3.1985 -3.0399,6.15211 -4.13608,9.39277 -0.39618,1.17122 -0.40616,2.45868 -0.86392,3.60723 -1.37976,3.46196 -3.70404,6.50581 -5,10 -0.74512,2.00901 -2.38473,9.64312 -2.57248,11.48409 -1.326,13.00163 0.70274,26.36201 5.08046,38.5872 0,4.53105 1.96447,8.85506 3.26967,13.19405 0.71243,2.36839 0.15339,6.4022 0.7564,8.2782 z"
         fill="#90c8bb"
         fill-rule="nonzero"
         id="path3"
         sodipodi:nodetypes="cccsscsssssssscssssssscssssssscscc" /><g
         fill-rule="evenodd"
         id="g5"><path
           d="m 212.731,308.183 c 6.898,-22.603 76.685,-34.962 77.948,-54.676 1.264,-19.715 -70.877,24.007 -76.037,12.423 -5.16,-11.584 74.504,-70.097 116.666,-87.202 25.406,-10.306 45.449,4.259 16.197,26.802 -19.57,15.082 -10.36,28.041 7.647,19.177 18.008,-8.866 27.588,13.998 2.71,33.538 -24.876,19.54 -152.934,75.519 -145.13,49.938 z m 189.335,-58.201 c 19.319,-28.824 56.251,-10.843 32.843,19.383 -20.714,26.74 -87.243,54.453 -90.495,39.57 -2.387,-10.93 34.924,-25.04 57.652,-58.953 z m 158.873,58.173 c -31.45,30.51 -58.014,60.244 -76.721,59.324 -19.437,-0.956 -2.076,-38.155 30.927,-66.69 23.382,-20.218 0.548,-30.477 -21.876,-18.406 -27.098,14.588 -48.221,4.827 -13.248,-27.159 34.973,-31.987 88.076,-55.525 117.043,-49.49 28.964,6.035 -40.686,24.468 -43.45,48.884 -2.715,23.992 39.526,-24.442 61.55,-8.33 21.378,15.637 -25.016,33.533 -54.226,61.867 z M 208.483,217.448 c 3.551,17.372 -39.795,72.106 -92.952,86.536 -53.431,14.506 -103.668,20.146 -105.823,7.6 -2.14,-12.472 31.75,-21.893 73.85,-42.078 20.354,-9.758 -1.181,-17.982 -14.432,-12.71 -43.828,17.432 -40.404,-9.208 -3.4,-27.99 28.915,-14.677 53.372,-22.376 67.86,-25.908 21.015,-5.123 25.395,8.45 13.397,16.11 -23.418,14.95 -12.157,28.75 8.806,17.15 13.278,-7.349 46.948,-46.807 52.694,-18.71 z M 228.04,202.52 c -12.426,4.974 -15.65,-4.143 -15.65,-11.508 0,-7.368 12.428,-10.129 19.334,-5.986 6.905,4.143 4.97,14.032 -3.684,17.494 z m 349.704,-31.421 c -4.74,10.969 -57.872,12.722 -97.381,48.154 -14.215,12.748 -31.64,-2.824 -27.503,-14.774 4.134,-11.95 16.768,-15.1 36.544,-22.787 19.773,-7.69 -5.371,-17.939 -37.998,-2.543 -18.663,8.805 -38.66,-6.038 -16.125,-21.324 18.835,-12.776 62.235,-16.439 61.05,-27.398 -0.657,-6.086 -32.162,8.555 -37.887,-4.566 -4.759,-10.904 6.519,-23.435 38.033,-25.98 32.107,-2.591 57.077,4.012 57.45,19.785 0.424,17.856 -37.245,22.695 -20.32,28.215 17.02,5.548 52.49,3.88 44.137,23.217 z M 387.048,209.31 c -6.345,-4.412 -6.542,-10.039 0.202,-17.845 8.744,-10.123 23.336,-9.652 27.622,-5.95 4.285,3.702 -5.403,13.289 -9.102,18.812 -3.7,5.522 -10.552,10.663 -18.722,4.983 z m 0.39,-60.812 c -37.62,8.994 -58.788,-6.084 -50.362,-16.385 9.102,-11.124 30.888,-11.099 32.6,-32.878 3.199,-40.752 43.285,-47.963 26.18,-19.513 -5.99,9.968 2.807,16.284 7.964,3.54 3.114,-7.691 17.882,-18.246 25.686,-22.149 35.42,-17.709 63.66,8.02 38.327,15.171 -16.484,4.653 -31.294,15.842 -40.754,41.467 -5.04,13.655 -23.117,26.796 -39.64,30.747 z M 499.53,65.917 c -14.26,-18.23 29.794,-19.25 46.063,-24.726 16.27,-5.477 -17.257,-8.257 -46.752,-7.95 -29.497,0.306 -25.033,-22.347 8.492,-33.444 51.508,-17.047 97.424,0.656 57.955,11.967 -14.72,4.221 -4.257,16.396 12.082,14.64 30.855,-3.317 53.723,11.912 48.53,23.81 -5.86,13.426 -20.36,4.387 -35.023,3.384 -14.663,-1.005 -1.97,13.368 17.017,23.264 32.614,16.998 5.33,45.91 -22.676,19.773 -39.901,-37.24 -75.01,-17.068 -85.687,-30.718 z M 351.59,21.72 c 21.055,-42.995 64.284,-38.771 58.215,-24.095 -6.068,14.676 18.895,2.72 30.458,5.396 11.562,2.673 18.418,22.773 -24.515,26.641 -52.895,4.77 -54.132,56.946 -71.796,46.051 -12.147,-7.489 -0.167,-38.056 7.638,-53.994 z M 35.807,216.293 c -35.264,6.061 -43.074,-6.082 -28.392,-15.8 9.104,-6.03 44.558,-25.255 18.664,-27.138 -25.897,-1.884 -6.597,-26.505 23.815,-49.426 30.411,-22.922 96.852,-35.305 93.95,-15.974 -2.906,19.33 -81.145,28.605 -67.056,49.005 6.119,8.861 36.046,-27.889 49.332,-6.744 13.287,21.146 -68.206,62.28 -90.312,66.077 z M 265.33,180.07 c -11.256,9.529 -34.276,-4.232 -13.57,-23.116 4.793,-4.371 17.112,-8.557 9.752,-12.871 -22.235,-13.033 -90.004,54.665 -101.215,32.455 -5.39,-10.68 21.638,-34.564 51.14,-49.484 21.779,-11.014 13.838,-31.192 -18.487,-11.311 -32.326,19.882 -38.03,-3.553 -20.123,-18.934 17.906,-15.379 132.308,-68.645 140.102,-40.18 6.067,22.14 -57.85,18.085 -49.896,32.389 5.839,10.496 50.291,-17.374 66.026,0.726 15.229,17.513 -41.775,29.116 -38.125,39.617 2.882,8.286 30.159,-3.39 30.687,16.896 0.409,15.721 -29.048,10.757 -56.29,33.813 z M 107.185,38.544 c -6.843,35.997 -70.248,69.556 -94.575,78.58 -38.277,14.191 -78.274,9.46 -55.695,-2.152 22.578,-11.614 81.928,-50.07 51.38,-52.71 -15.034,-1.3 -32.027,-12.453 0,-38.906 20.331,-16.794 91.188,-40 95.058,-25.162 3.87,14.839 -81.281,40.646 -54.833,43.228 26.448,2.58 61.863,-19.711 58.665,-2.878 z m 93.37,12.92 c -20.66,10.328 -39.767,22.835 -61.76,27.556 -28.684,6.156 -0.393,-32.654 27.142,-45.245 12.332,-5.638 -2.435,-13.153 -14.302,-7.392 -32.247,15.654 -46.272,3.628 -12.971,-18.519 8.279,-5.507 33.859,-18.544 64.92,-22.526 31.355,-4.023 30.54,7.52 20.837,11.848 -13.953,6.222 -23.511,19.711 13.899,8.318 66.874,-20.365 106.489,-16.974 91.265,0 -14.22,15.851 -62.156,12.535 -129.03,45.96 z"
           fill-opacity="0.733"
           fill="#ffffff"
           opacity="0.1"
           id="path4" /><path
           d="m 212.731,308.183 c 6.898,-22.603 76.685,-34.962 77.948,-54.676 1.264,-19.715 -70.877,24.007 -76.037,12.423 -5.16,-11.584 74.504,-70.097 116.666,-87.202 25.406,-10.306 45.449,4.259 16.197,26.802 -19.57,15.082 -10.36,28.041 7.647,19.177 18.008,-8.866 27.588,13.998 2.71,33.538 -24.876,19.54 -152.934,75.519 -145.13,49.938 z m 189.335,-58.201 c 19.319,-28.824 56.251,-10.843 32.843,19.383 -20.714,26.74 -87.243,54.453 -90.495,39.57 -2.387,-10.93 34.924,-25.04 57.652,-58.953 z m 158.873,58.173 c -31.45,30.51 -58.014,60.244 -76.721,59.324 -19.437,-0.956 -2.076,-38.155 30.927,-66.69 23.382,-20.218 0.548,-30.477 -21.876,-18.406 -27.098,14.588 -48.221,4.827 -13.248,-27.159 34.973,-31.987 88.076,-55.525 117.043,-49.49 28.964,6.035 -40.686,24.468 -43.45,48.884 -2.715,23.992 39.526,-24.442 61.55,-8.33 21.378,15.637 -25.016,33.533 -54.226,61.867 z M 208.483,217.448 c 3.551,17.372 -39.795,72.106 -92.952,86.536 -53.431,14.506 -103.668,20.146 -105.823,7.6 -2.14,-12.472 31.75,-21.893 73.85,-42.078 20.354,-9.758 -1.181,-17.982 -14.432,-12.71 -43.828,17.432 -40.404,-9.208 -3.4,-27.99 28.915,-14.677 53.372,-22.376 67.86,-25.908 21.015,-5.123 25.395,8.45 13.397,16.11 -23.418,14.95 -12.157,28.75 8.806,17.15 13.278,-7.349 46.948,-46.807 52.694,-18.71 z M 228.04,202.52 c -12.426,4.974 -15.65,-4.143 -15.65,-11.508 0,-7.368 12.428,-10.129 19.334,-5.986 6.905,4.143 4.97,14.032 -3.684,17.494 z m 349.704,-31.421 c -4.74,10.969 -57.872,12.722 -97.381,48.154 -14.215,12.748 -31.64,-2.824 -27.503,-14.774 4.134,-11.95 16.768,-15.1 36.544,-22.787 19.773,-7.69 -5.371,-17.939 -37.998,-2.543 -18.663,8.805 -38.66,-6.038 -16.125,-21.324 18.835,-12.776 62.235,-16.439 61.05,-27.398 -0.657,-6.086 -32.162,8.555 -37.887,-4.566 -4.759,-10.904 6.519,-23.435 38.033,-25.98 32.107,-2.591 57.077,4.012 57.45,19.785 0.424,17.856 -37.245,22.695 -20.32,28.215 17.02,5.548 52.49,3.88 44.137,23.217 z M 387.048,209.31 c -6.345,-4.412 -6.542,-10.039 0.202,-17.845 8.744,-10.123 23.336,-9.652 27.622,-5.95 4.285,3.702 -5.403,13.289 -9.102,18.812 -3.7,5.522 -10.552,10.663 -18.722,4.983 z m 0.39,-60.812 c -37.62,8.994 -58.788,-6.084 -50.362,-16.385 9.102,-11.124 30.888,-11.099 32.6,-32.878 3.199,-40.752 43.285,-47.963 26.18,-19.513 -5.99,9.968 2.807,16.284 7.964,3.54 3.114,-7.691 17.882,-18.246 25.686,-22.149 35.42,-17.709 63.66,8.02 38.327,15.171 -16.484,4.653 -31.294,15.842 -40.754,41.467 -5.04,13.655 -23.117,26.796 -39.64,30.747 z M 499.53,65.917 c -14.26,-18.23 29.794,-19.25 46.063,-24.726 16.27,-5.477 -17.257,-8.257 -46.752,-7.95 -29.497,0.306 -25.033,-22.347 8.492,-33.444 51.508,-17.047 97.424,0.656 57.955,11.967 -14.72,4.221 -4.257,16.396 12.082,14.64 30.855,-3.317 53.723,11.912 48.53,23.81 -5.86,13.426 -20.36,4.387 -35.023,3.384 -14.663,-1.005 -1.97,13.368 17.017,23.264 32.614,16.998 5.33,45.91 -22.676,19.773 -39.901,-37.24 -75.01,-17.068 -85.687,-30.718 z M 351.59,21.72 c 21.055,-42.995 64.284,-38.771 58.215,-24.095 -6.068,14.676 18.895,2.72 30.458,5.396 11.562,2.673 18.418,22.773 -24.515,26.641 -52.895,4.77 -54.132,56.946 -71.796,46.051 -12.147,-7.489 -0.167,-38.056 7.638,-53.994 z M 35.807,216.293 c -35.264,6.061 -43.074,-6.082 -28.392,-15.8 9.104,-6.03 44.558,-25.255 18.664,-27.138 -25.897,-1.884 -6.597,-26.505 23.815,-49.426 30.411,-22.922 96.852,-35.305 93.95,-15.974 -2.906,19.33 -81.145,28.605 -67.056,49.005 6.119,8.861 36.046,-27.889 49.332,-6.744 13.287,21.146 -68.206,62.28 -90.312,66.077 z M 265.33,180.07 c -11.256,9.529 -34.276,-4.232 -13.57,-23.116 4.793,-4.371 17.112,-8.557 9.752,-12.871 -22.235,-13.033 -90.004,54.665 -101.215,32.455 -5.39,-10.68 21.638,-34.564 51.14,-49.484 21.779,-11.014 13.838,-31.192 -18.487,-11.311 -32.326,19.882 -38.03,-3.553 -20.123,-18.934 17.906,-15.379 132.308,-68.645 140.102,-40.18 6.067,22.14 -57.85,18.085 -49.896,32.389 5.839,10.496 50.291,-17.374 66.026,0.726 15.229,17.513 -41.775,29.116 -38.125,39.617 2.882,8.286 30.159,-3.39 30.687,16.896 0.409,15.721 -29.048,10.757 -56.29,33.813 z M 107.185,38.544 c -6.843,35.997 -70.248,69.556 -94.575,78.58 -38.277,14.191 -78.274,9.46 -55.695,-2.152 22.578,-11.614 81.928,-50.07 51.38,-52.71 -15.034,-1.3 -32.027,-12.453 0,-38.906 20.331,-16.794 91.188,-40 95.058,-25.162 3.87,14.839 -81.281,40.646 -54.833,43.228 26.448,2.58 61.863,-19.711 58.665,-2.878 z m 93.37,12.92 c -20.66,10.328 -39.767,22.835 -61.76,27.556 -28.684,6.156 -0.393,-32.654 27.142,-45.245 12.332,-5.638 -2.435,-13.153 -14.302,-7.392 -32.247,15.654 -46.272,3.628 -12.971,-18.519 8.279,-5.507 33.859,-18.544 64.92,-22.526 31.355,-4.023 30.54,7.52 20.837,11.848 -13.953,6.222 -23.511,19.711 13.899,8.318 66.874,-20.365 106.489,-16.974 91.265,0 -14.22,15.851 -62.156,12.535 -129.03,45.96 z"
           fill-opacity="0.541"
           fill="#ffffff"
           opacity="0.1"
           id="path5" /></g></g><g
       fill-rule="nonzero"
       id="g11"><path
         d="m 387.57778,121.29049 c 10.44969,-7.39719 20.84459,-14.76979 31.2557,-22.11973 3.72144,-2.62686 8.29879,-1.82937 10.54588,1.78215 2.0459,3.288 1.13696,7.49518 -2.02933,9.72274 -5.98706,4.21262 -11.94427,8.46662 -17.91657,12.69869 -4.4237,3.13431 -8.85474,6.25859 -13.27579,9.39626 -1.01421,0.71917 -1.00965,0.74228 -0.20619,1.66344 7.98089,9.14542 15.96785,18.28607 23.94059,27.43844 0.77428,0.88962 1.64729,1.71353 2.19753,2.77838 1.29234,2.5009 1.26642,4.99109 -0.28272,7.3577 -1.52747,2.3332 -3.7469,3.40348 -6.54243,3.21122 -2.03258,-0.13915 -3.65278,-1.07163 -4.98181,-2.59411 -10.28099,-11.77984 -20.53827,-23.57944 -30.87586,-35.30929 -3.03355,-3.44171 -2.63487,-8.59367 1.30449,-11.1909 2.31982,-1.52866 4.54875,-3.19566 6.8665,-4.83499 z"
         fill-opacity="0"
         fill="#000000"
         stroke-opacity="0.13"
         stroke="#000000"
         stroke-width="9"
         id="path6" /><path
         d="m 387.64947,120.93899 c 10.44969,-7.39719 20.84459,-14.76979 31.2557,-22.11973 3.72144,-2.62686 8.29879,-1.82937 10.54588,1.78215 2.0459,3.288 1.13696,7.49518 -2.02933,9.72274 -5.98706,4.21262 -11.94427,8.46662 -17.91657,12.69869 -4.4237,3.13431 -8.85474,6.25859 -13.27579,9.39626 -1.01421,0.71917 -1.00965,0.74228 -0.20619,1.66344 7.98089,9.14542 15.96785,18.28607 23.94059,27.43844 0.77428,0.88962 1.64729,1.71353 2.19753,2.77838 1.29234,2.5009 1.26642,4.99109 -0.28272,7.3577 -1.52747,2.3332 -3.7469,3.40348 -6.54243,3.21122 -2.03258,-0.13915 -3.65278,-1.07163 -4.98181,-2.59411 -10.28099,-11.77984 -20.53827,-23.57944 -30.87586,-35.30929 -3.03355,-3.44171 -2.63487,-8.59367 1.30449,-11.1909 2.31982,-1.52866 4.54875,-3.19566 6.8665,-4.83499 z"
         fill="#ffffff"
         stroke="none"
         stroke-width="1"
         id="path7" /><path
         d="m 485.70501,167.8311 c 9.08191,-6.42429 18.11645,-12.81457 27.14841,-19.20881 0.99536,-0.70433 0.99855,-0.72591 0.186,-1.65792 -8.01639,-9.19052 -16.03824,-18.3762 -24.05396,-27.56725 -0.9381,-1.0763 -1.93334,-2.10816 -2.44838,-3.49397 -1.2018,-3.23498 -0.0164,-6.87481 2.83447,-8.60067 3.08899,-1.87074 6.80403,-1.36757 9.16052,1.30042 3.28126,3.71281 6.52842,7.45572 9.78845,11.18796 7.09933,8.1271 14.19455,16.25798 21.29853,24.38198 1.28046,1.46422 2.02883,3.10356 1.97751,5.09537 -0.0615,2.39933 -1.04233,4.3078 -2.96251,5.70291 -2.73839,1.99 -5.51245,3.93121 -8.27553,5.88777 -4.17765,2.95865 -8.35848,5.91327 -12.53818,8.86862 l -13.95615,9.86849 c -1.41563,1.00075 -2.8205,2.01865 -4.25333,2.99478 -3.17844,2.17402 -7.50871,1.43244 -9.78262,-1.67532 -2.26883,-3.09129 -1.70568,-7.48366 1.32342,-9.83981 1.45434,-1.13096 3.00019,-2.14425 4.55335,-3.24452 z"
         fill-opacity="0"
         fill="#000000"
         stroke-opacity="0.13"
         stroke="#000000"
         stroke-width="9"
         id="path8" /><path
         d="m 485.70501,167.8311 c 9.08191,-6.42429 18.11645,-12.81457 27.14841,-19.20881 0.99536,-0.70433 0.99855,-0.72591 0.186,-1.65792 -8.01639,-9.19052 -16.03824,-18.3762 -24.05396,-27.56725 -0.9381,-1.0763 -1.93334,-2.10816 -2.44838,-3.49397 -1.2018,-3.23498 -0.0164,-6.87481 2.83447,-8.60067 3.08899,-1.87074 6.80403,-1.36757 9.16052,1.30042 3.28126,3.71281 6.52842,7.45572 9.78845,11.18796 7.09933,8.1271 14.19455,16.25798 21.29853,24.38198 1.28046,1.46422 2.02883,3.10356 1.97751,5.09537 -0.0615,2.39933 -1.04233,4.3078 -2.96251,5.70291 -2.73839,1.99 -5.51245,3.93121 -8.27553,5.88777 -4.17765,2.95865 -8.35848,5.91327 -12.53818,8.86862 l -13.95615,9.86849 c -1.41563,1.00075 -2.8205,2.01865 -4.25333,2.99478 -3.17844,2.17402 -7.50871,1.43244 -9.78262,-1.67532 -2.26883,-3.09129 -1.70568,-7.48366 1.32342,-9.83981 1.45434,-1.13096 3.00019,-2.14425 4.55335,-3.24452 z"
         fill="#ffffff"
         stroke="none"
         stroke-width="1"
         id="path9" /><path
         d="m 463.94194,99.78475 c 1.29163,-3.07751 2.52108,-6.10935 3.82939,-9.10679 1.24595,-2.85296 3.50545,-4.39248 6.5951,-4.39027 2.97064,0.0027 5.20592,1.43549 6.49373,4.16889 0.85304,1.81043 0.896,3.70732 0.14209,5.53364 -2.87301,6.96358 -5.80476,13.90307 -8.71385,20.85198 -5.72128,13.66839 -11.43976,27.33894 -17.16458,41.0063 -4.55791,10.87879 -9.13195,21.74956 -13.6812,32.63243 -1.30571,3.12402 -3.59015,4.84724 -6.99001,4.81173 -4.25528,-0.0447 -7.17479,-3.84437 -6.92416,-7.49312 0.14737,-2.15788 1.20761,-3.98491 2.0051,-5.9006 4.53,-10.88517 9.09773,-21.75425 13.65801,-32.62726 3.95318,-9.42878 7.91569,-18.85401 11.87007,-28.28265 2.95481,-7.04595 5.90149,-14.0953 8.88028,-21.20427 z"
         fill-opacity="0"
         fill="#000000"
         stroke-opacity="0.12941"
         stroke="#000000"
         stroke-width="9"
         id="path10" /><path
         d="m 463.91624,99.78194 c 1.29163,-3.07751 2.52108,-6.10935 3.82939,-9.10679 1.24595,-2.85296 3.50545,-4.39248 6.5951,-4.39027 2.97064,0.0027 5.20592,1.43549 6.49373,4.16889 0.85304,1.81043 0.896,3.70732 0.14209,5.53364 -2.87301,6.96358 -5.80476,13.90307 -8.71385,20.85198 -5.72128,13.66839 -11.43976,27.33894 -17.16458,41.0063 -4.55791,10.87879 -9.13195,21.74956 -13.6812,32.63243 -1.30571,3.12402 -3.59015,4.84724 -6.99001,4.81173 -4.25528,-0.0447 -7.17479,-3.84437 -6.92416,-7.49312 0.14737,-2.15788 1.20761,-3.98491 2.0051,-5.9006 4.53,-10.88517 9.09773,-21.75425 13.65801,-32.62726 3.95318,-9.42878 7.91569,-18.85401 11.87007,-28.28265 2.95481,-7.04595 5.90149,-14.0953 8.88028,-21.20427 z"
         fill="#ffffff"
         stroke="none"
         stroke-width="1"
         id="path11" /></g><g
       fill-rule="nonzero"
       id="g13"><path
         d="m 200.863,181.24576 -137.04787,12.0671 c -6.37563,0.56138 -11.99919,-4.15201 -12.56057,-10.52764 l -6.64519,-75.47041 c -0.56138,-6.37563 4.15201,-11.99919 10.52764,-12.56057 l 137.04787,-12.0671 c 6.37563,-0.56138 11.99919,4.15201 12.56057,10.52764 l 6.64402,75.45707 c 0.27146,3.06268 -0.68532,6.10771 -2.6597,8.46474 -1.97438,2.35702 -4.80451,3.83282 -7.86736,4.1025 z"
         fill-opacity="0.12941"
         fill="#000000"
         stroke-opacity="0.12941"
         stroke="#000000"
         stroke-width="15"
         id="path12" /><path
         d="m 200.86301,181.24576 -137.04787,12.0671 c -6.37563,0.56138 -11.99919,-4.15201 -12.56057,-10.52764 L 44.60938,107.31481 C 44.048,100.93918 48.76139,95.31562 55.13702,94.75424 l 137.04787,-12.0671 c 6.37563,-0.56138 11.99919,4.15201 12.56057,10.52764 l 6.64402,75.45707 c 0.27146,3.06268 -0.68532,6.10771 -2.6597,8.46474 -1.97438,2.35702 -4.80451,3.83282 -7.86736,4.1025 z m -112.16607,-13.73903 -2.64397,-30.02801 17.09612,17.89523 13.69928,-20.60678 2.64397,30.02801 15.40103,-1.35607 -4.60933,-52.34885 -15.40103,1.35607 -13.69928,20.60678 -17.09612,-17.89523 -15.40103,1.35607 4.6105,52.36218 z m 100.90055,-34.9304 -15.40103,1.35607 -2.30496,-26.17776 -15.39436,1.35548 2.30496,26.17776 -15.40103,1.35607 25.46799,24.9183 z"
         fill="#ffffff"
         stroke="none"
         stroke-width="1"
         id="path13" /></g><path
       d="m 233.50001,121.57625 c 0,-3.14345 0,-10.12572 0,-15.14986 0,-3.27857 1.26825,-6.12203 3.36889,-6.72544 6.53148,-1.8762 21.11019,-5.7311 30.63413,-5.7311 13.09179,0 43.09292,6.73327 43.09292,6.73327 0,0 3.66261,-12.68016 4.62347,-16.34346 0.48669,-1.8555 4.03912,-1.18745 6.91965,1.4553 5.43131,4.98297 24.04849,22.06336 31.24042,28.66161 1.78592,1.6385 -0.098,4.82767 -2.87794,6.88732 -5.84064,4.32737 -27.77015,20.57506 -36.56622,27.09213 -2.28512,1.69306 -3.68271,-0.57242 -3.68188,-2.97666 0.001,-4.12947 0.006,-16.83317 0.006,-16.83317 0,0 -25.15799,-6.72733 -45.79476,-6.94885 -12.27661,-0.13178 -23.1707,5.95418 -25.61886,6.37238 -2.56296,0.43779 -5.34565,-3.39903 -5.34565,-6.49346 z"
       fill="#ffffff"
       fill-rule="nonzero"
       stroke-opacity="0.12941"
       stroke="#000000"
       stroke-width="10.5"
       id="path14" /><path
       d="m 233.50001,121.07625 c 0,-3.14345 0,-10.12572 0,-15.14986 0,-3.27857 1.26825,-6.12203 3.36889,-6.72544 6.53148,-1.8762 21.11019,-5.7311 30.63413,-5.7311 13.09179,0 43.09292,6.73327 43.09292,6.73327 0,0 3.66261,-12.68016 4.62347,-16.34346 0.48669,-1.8555 4.03912,-1.18745 6.91965,1.4553 5.43131,4.98297 24.04849,22.06336 31.24042,28.66161 1.78592,1.6385 -0.098,4.82767 -2.87794,6.88732 -5.84064,4.32737 -27.77015,20.57506 -36.56622,27.09213 -2.28512,1.69306 -3.68271,-0.57242 -3.68188,-2.97666 0.001,-4.12947 0.006,-16.83317 0.006,-16.83317 0,0 -25.15799,-6.72733 -45.79476,-6.94885 -12.27661,-0.13178 -23.1707,5.95419 -25.61886,6.37238 -2.56296,0.43779 -5.34565,-3.39903 -5.34565,-6.49346 z"
       fill="#ffffff"
       fill-rule="nonzero"
       stroke="none"
       stroke-width="0"
       id="path15" /></g></g></svg>
